TITLE ""
FILE "P1Q_t_1439-1448.mp3" MP3
  TRACK 01 AUDIO
    TITLE "P1Q_t_1439-1448_01"
    INDEX 01 00:00:00
  TRACK 02 AUDIO
    TITLE "P1Q_t_1439-1448_02"
    INDEX 01 00:01:00
  TRACK 03 AUDIO
    TITLE "P1Q_t_1439-1448_03"
    INDEX 01 00:01:23
  TRACK 04 AUDIO
    TITLE "P1Q_t_1439-1448_04"
    INDEX 01 00:03:07
  TRACK 05 AUDIO
    TITLE "P1Q_t_1439-1448_05"
    INDEX 01 00:03:26
  TRACK 06 AUDIO
    TITLE "P1Q_t_1439-1448_06"
    INDEX 01 00:08:31
  TRACK 07 AUDIO
    TITLE "P1Q_t_1439-1448_07"
    INDEX 01 00:09:03
  TRACK 08 AUDIO
    TITLE "P1Q_t_1439-1448_08"
    INDEX 01 00:10:15
  TRACK 09 AUDIO
    TITLE "P1Q_t_1439-1448_09"
    INDEX 01 00:10:34
  TRACK 10 AUDIO
    TITLE "P1Q_t_1439-1448_10"
    INDEX 01 00:11:53
  TRACK 11 AUDIO
    TITLE "P1Q_t_1439-1448_11"
    INDEX 01 00:11:71
  TRACK 12 AUDIO
    TITLE "P1Q_t_1439-1448_12"
    INDEX 01 00:16:49
  TRACK 13 AUDIO
    TITLE "P1Q_t_1439-1448_13"
    INDEX 01 00:17:19
  TRACK 14 AUDIO
    TITLE "P1Q_t_1439-1448_14"
    INDEX 01 00:18:51
  TRACK 15 AUDIO
    TITLE "P1Q_t_1439-1448_15"
    INDEX 01 00:18:73
  TRACK 16 AUDIO
    TITLE "P1Q_t_1439-1448_16"
    INDEX 01 00:21:69
  TRACK 17 AUDIO
    TITLE "P1Q_t_1439-1448_17"
    INDEX 01 00:22:14
  TRACK 18 AUDIO
    TITLE "P1Q_t_1439-1448_18"
    INDEX 01 00:27:01
  TRACK 19 AUDIO
    TITLE "P1Q_t_1439-1448_19"
    INDEX 01 00:27:46
  TRACK 20 AUDIO
    TITLE "P1Q_t_1439-1448_20"
    INDEX 01 00:28:52
  TRACK 21 AUDIO
    TITLE "P1Q_t_1439-1448_21"
    INDEX 01 00:28:73
  TRACK 22 AUDIO
    TITLE "P1Q_t_1439-1448_22"
    INDEX 01 00:30:68
  TRACK 23 AUDIO
    TITLE "P1Q_t_1439-1448_23"
    INDEX 01 00:31:13
  TRACK 24 AUDIO
    TITLE "P1Q_t_1439-1448_24"
    INDEX 01 00:34:68
  TRACK 25 AUDIO
    TITLE "P1Q_t_1439-1448_25"
    INDEX 01 00:35:38
  TRACK 26 AUDIO
    TITLE "P1Q_t_1439-1448_26"
    INDEX 01 00:36:45
  TRACK 27 AUDIO
    TITLE "P1Q_t_1439-1448_27"
    INDEX 01 00:36:67
  TRACK 28 AUDIO
    TITLE "P1Q_t_1439-1448_28"
    INDEX 01 00:39:12
  TRACK 29 AUDIO
    TITLE "P1Q_t_1439-1448_29"
    INDEX 01 00:39:34
  TRACK 30 AUDIO
    TITLE "P1Q_t_1439-1448_30"
    INDEX 01 00:43:04
  TRACK 31 AUDIO
    TITLE "P1Q_t_1439-1448_31"
    INDEX 01 00:43:51
  TRACK 32 AUDIO
    TITLE "P1Q_t_1439-1448_32"
    INDEX 01 00:44:57
  TRACK 33 AUDIO
    TITLE "P1Q_t_1439-1448_33"
    INDEX 01 00:45:07
  TRACK 34 AUDIO
    TITLE "P1Q_t_1439-1448_34"
    INDEX 01 00:46:18
  TRACK 35 AUDIO
    TITLE "P1Q_t_1439-1448_35"
    INDEX 01 00:46:36
  TRACK 36 AUDIO
    TITLE "P1Q_t_1439-1448_36"
    INDEX 01 00:51:27
  TRACK 37 AUDIO
    TITLE "P1Q_t_1439-1448_37"
    INDEX 01 00:51:70
  TRACK 38 AUDIO
    TITLE "P1Q_t_1439-1448_38"
    INDEX 01 00:53:20
  TRACK 39 AUDIO
    TITLE "P1Q_t_1439-1448_39"
    INDEX 01 00:53:42
  TRACK 40 AUDIO
    TITLE "P1Q_t_1439-1448_40"
    INDEX 01 00:56:52
  TRACK 41 AUDIO
    TITLE "P1Q_t_1439-1448_41"
    INDEX 01 00:56:73
  TRACK 42 AUDIO
    TITLE "P1Q_t_1439-1448_42"
    INDEX 01 01:01:14
  TRACK 43 AUDIO
    TITLE "P1Q_t_1439-1448_43"
    INDEX 01 01:01:59
  TRACK 44 AUDIO
    TITLE "P1Q_t_1439-1448_44"
    INDEX 01 01:03:01
  TRACK 45 AUDIO
    TITLE "P1Q_t_1439-1448_45"
    INDEX 01 01:03:23
  TRACK 46 AUDIO
    TITLE "P1Q_t_1439-1448_46"
    INDEX 01 01:06:54
  TRACK 47 AUDIO
    TITLE "P1Q_t_1439-1448_47"
    INDEX 01 01:06:74
  TRACK 48 AUDIO
    TITLE "P1Q_t_1439-1448_48"
    INDEX 01 01:10:66
  TRACK 49 AUDIO
    TITLE "P1Q_t_1439-1448_49"
    INDEX 01 01:11:36
  TRACK 50 AUDIO
    TITLE "P1Q_t_1439-1448_50"
    INDEX 01 01:12:59
  TRACK 51 AUDIO
    TITLE "P1Q_t_1439-1448_51"
    INDEX 01 01:13:03
  TRACK 52 AUDIO
    TITLE "P1Q_t_1439-1448_52"
    INDEX 01 01:16:12
  TRACK 53 AUDIO
    TITLE "P1Q_t_1439-1448_53"
    INDEX 01 01:16:31
  TRACK 54 AUDIO
    TITLE "P1Q_t_1439-1448_54"
    INDEX 01 01:20:52
  TRACK 55 AUDIO
    TITLE "P1Q_t_1439-1448_55"
    INDEX 01 01:21:22
  TRACK 56 AUDIO
    TITLE "P1Q_t_1439-1448_56"
    INDEX 01 01:22:53
  TRACK 57 AUDIO
    TITLE "P1Q_t_1439-1448_57"
    INDEX 01 01:22:73
  TRACK 58 AUDIO
    TITLE "P1Q_t_1439-1448_58"
    INDEX 01 01:25:28
  TRACK 59 AUDIO
    TITLE "P1Q_t_1439-1448_59"
    INDEX 01 01:25:48
  TRACK 60 AUDIO
    TITLE "P1Q_t_1439-1448_60"
    INDEX 01 01:29:59
